<?xml version="1.0" standalone="no"?><!DOCTYPE svg PUBLIC "-//W3C//DTD SVG 1.1//EN" "http://www.w3.org/Graphics/SVG/1.1/DTD/svg11.dtd"><svg t="1590152901412" class="icon" viewBox="0 0 1024 1024" version="1.1" xmlns="http://www.w3.org/2000/svg" p-id="1693" xmlns:xlink="http://www.w3.org/1999/xlink" width="200" height="200"><defs><style type="text/css"></style></defs><path d="M727.338667 502.421333L326.4 356.48a117.504 117.504 0 0 0-150.378667 70.122667l-21.888 60.138666c-62.378667 171.328 26.282667 361.450667 197.653334 423.829334 36.885333 13.418667 75.136 20.117333 113.301333 20.117333 47.616 0 95.082667-10.432 139.541333-31.146667a328.533333 328.533333 0 0 0 170.965334-186.581333l21.888-60.138667a116.522667 116.522667 0 0 0-3.904-89.728 116.672 116.672 0 0 0-66.24-60.672z m9.984 128.490667l-21.888 60.138667c-50.282667 138.154667-203.584 209.642667-341.781334 159.381333-138.176-50.282667-209.685333-203.605333-159.402666-341.781333l21.888-60.138667a53.44 53.44 0 0 1 68.394666-31.872l400.938667 145.92a53.034667 53.034667 0 0 1 30.08 27.584 52.906667 52.906667 0 0 1 1.770667 40.768zM332.437333 273.941333a95.637333 95.637333 0 0 0 73.408-3.2 95.210667 95.210667 0 0 0 49.621334-54.186666c8.789333-24.085333 7.637333-50.154667-3.178667-73.386667s-30.08-40.874667-54.186667-49.642667a95.424 95.424 0 0 0-73.386666 3.2 95.296 95.296 0 0 0-49.621334 54.186667 96.085333 96.085333 0 0 0 57.344 123.029333z m2.773334-101.162666a31.914667 31.914667 0 0 1 30.058666-21.077334 32.042667 32.042667 0 0 1 30.101334 42.944v0.021334a31.914667 31.914667 0 0 1-41.002667 19.114666 32.042667 32.042667 0 0 1-19.157333-41.002666zM839.146667 254.037333a96.106667 96.106667 0 0 0-123.050667 57.386667c-8.768 24.085333-7.616 50.154667 3.2 73.386667s30.058667 40.874667 54.165333 49.642666a95.573333 95.573333 0 0 0 32.725334 5.781334 96.213333 96.213333 0 0 0 90.304-63.146667v-0.021333a96.064 96.064 0 0 0-57.344-123.029334z m-2.752 101.141334a32 32 0 0 1-60.181334-21.845334 32.128 32.128 0 0 1 41.024-19.157333 32.042667 32.042667 0 0 1 19.157334 41.002667z" p-id="1694"></path></svg>